<?xml version="1.0" encoding="UTF-8"?>
<svg enable-background="new 0 0 1683.758 1646.725" version="1.1" viewBox="0 0 1683.758 1646.725" xmlns="http://www.w3.org/2000/svg">
 <path d="m273.36 236.59c13.727-14.696 28.962-29.32 45.823-43.577-14.999 12.148-30.001 26.062-44.708 41.85-16.82 14.722-31.763 29.804-44.917 44.953 14.396-15.998 29.095-30.36 43.802-43.226z"/>
 <path d="m284.23 226.54c18.675-15.529 39.46-30.583 62.305-44.89 14.184-15.278 28.623-28.466 43.038-39.615-22.004 13.653-42.24 28.064-60.683 42.957-14.979 12.003-29.964 25.82-44.66 41.548z"/>
 <path d="m359.69 173.63c25.036-14.854 52.273-28.765 81.553-41.482 12.457-14.463 25.119-26.73 37.76-36.769-27.374 11.917-53.035 25.013-76.841 39.042-14.222 10.981-28.471 24.038-42.472 39.209z"/>
 <path d="m457.97 125.11c31.526-12.86 65.065-24.274 100.35-34.008 9.368-13.445 18.888-24.73 28.473-33.724-32.246 8.954-63.073 19.502-92.235 31.437-12.253 9.867-24.518 21.982-36.587 36.295z"/>
 <path d="m693.86 63.567c5.045-12.492 10.163-22.952 15.49-31.279-35.789 4.87-70.7 11.669-104.4 20.256-8.999 8.856-17.912 19.997-26.682 33.282 37.165-9.407 75.823-16.886 115.59-22.259z"/>
 <path d="m840.25 23.362c-37.267 0.066-74.387 2.223-110.98 6.426-4.571 8.278-8.924 18.637-13.222 31.014 40.826-4.656 82.311-7.053 124-7.126 0.065-12.051 0.13-22.104 0.201-30.314z"/>
 <path d="m986.38 63.08c-4.923-12.472-9.915-22.914-15.119-31.232-36.333-4.812-73.295-7.602-110.5-8.308 0.788 8.209 1.512 18.272 2.233 30.334 41.608 0.783 82.889 3.879 123.39 9.206z"/>
 <path d="m1122.3 90.204c-9.271-13.418-18.693-24.679-28.183-33.649-33.191-9.086-67.665-16.43-103.1-21.88 5.939 8.38 11.682 18.93 17.339 31.528 39.315 6.004 77.418 14.067 113.94 24.001z"/>
 <path d="m1141.9 95.751c34.568 10.201 67.335 22.02 98.046 35.219-12.396-14.438-24.994-26.681-37.573-36.691-28.497-12.279-58.698-23.227-90.372-32.631 10.052 9.115 20.056 20.523 29.899 34.103z"/>
 <path d="m1256.2 138.18c28.451 12.997 54.844 27.129 79.031 42.139-14.156-15.26-28.566-28.428-42.951-39.549-23.097-14.207-48.055-27.541-74.745-39.751 12.943 10.183 25.909 22.578 38.665 37.161z"/>
 <path d="m128.72 445.76c2.929-4.755 5.687-9.766 8.361-14.979-2.804 4.931-5.591 9.929-8.361 14.979z"/>
 <path d="m229.03 297.31c18.699-15.439 39.856-30.46 63.393-44.823 14.343-22.466 29.268-42.542 44.542-60.162-23 14.384-43.88 29.506-62.582 45.097-15.605 17.784-30.813 37.762-45.353 59.888z"/>
 <path d="m306.11 244.36c26.269-15.158 55.155-29.451 86.503-42.635 13.011-22.39 26.438-42.198 40.142-59.339-29.675 12.848-57.236 26.884-82.518 41.857-15.121 17.564-29.904 37.627-44.127 60.117z"/>
 <path d="m410.66 194.37c34.283-13.543 71.055-25.68 110.05-36.132 10.154-21.813 20.526-40.987 31.128-57.454-35.95 9.884-70.079 21.459-102.11 34.483-13.329 17.043-26.39 36.773-39.066 59.103z"/>
 <path d="m542.89 152.54c41.576-10.233 85.082-18.452 130.09-24.396 5.671-21.044 11.403-39.494 17.318-55.388-40.674 5.479-80.177 13.099-118.12 22.67-9.975 16.363-19.725 35.421-29.288 57.114z"/>
 <path d="m839.78 117.11c0.074-20.666 0.149-38.766 0.227-54.456-42.703 0.075-85.192 2.523-126.99 7.276-5.066 15.836-9.964 34.194-14.818 55.139 46.514-5.19 93.898-7.878 141.58-7.959z"/>
 <path d="m866.03 117.33c47.572 0.879 94.672 4.346 140.74 10.269-5.538-21.027-11.133-39.461-16.91-55.345-41.454-5.436-83.727-8.598-126.35-9.399 0.864 15.694 1.693 33.801 2.519 54.475z"/>
 <path d="m1012.3 75.441c6.602 15.951 13.009 34.484 19.341 55.619 44.383 6.62 87.142 15.448 127.87 26.212-10.059-21.793-20.331-40.948-30.832-57.398-37.267-10.103-76.186-18.314-116.38-24.433z"/>
 <path d="m1148.7 105.51c11.095 16.557 21.955 35.826 32.573 57.734 38.063 10.905 73.846 23.415 107.1 37.257-12.958-22.381-26.327-42.177-39.972-59.302-31.184-13.36-64.504-25.337-99.705-35.689z"/>
 <path d="m1264.9 148.49c13.989 17.218 27.692 37.084 40.955 59.515 30.323 13.416 58.179 27.874 83.425 43.135-14.325-22.471-29.229-42.545-44.48-60.157-24.403-15.121-51.086-29.37-79.9-42.493z"/>
 <path d="m1357.6 199.13c15.378 17.659 30.399 37.739 44.821 60.175 22.569 14.424 42.783 29.457 60.577 44.855-14.51-22.047-29.696-41.986-45.285-59.777-17.905-15.587-37.957-30.763-60.113-45.253z"/>
 <path d="m1551.2 439.01c-0.716-1.31-1.432-2.623-2.15-3.925 0.708 1.324 1.426 2.63 2.15 3.925z"/>
 <path d="m176.68 393.27c18.37-14.069 39.44-27.807 63.126-41.065 13.394-30.629 27.81-58.733 43.013-84.171-23.608 14.264-44.785 29.159-63.452 44.459-15.183 24.636-29.496 51.612-42.687 80.777z"/>
 <path d="m253.72 344.63c26.995-14.285 56.954-27.892 89.773-40.632 12.719-31.776 26.211-60.672 40.307-86.597-31.665 13.186-60.793 27.45-87.234 42.554-15.123 25.55-29.481 53.82-42.846 84.675z"/>
 <path d="m362.57 296.82c36.565-13.363 76.121-25.548 118.47-36.228 10.507-32.069 21.422-61.035 32.705-86.893-39.634 10.539-76.948 22.747-111.68 36.337-13.784 25.949-26.999 54.904-39.493 86.784z"/>
 <path d="m505.33 254.7c45.889-10.665 94.289-19.418 144.76-25.828 6.203-31.67 12.497-60.191 18.95-85.657-45.972 6.037-90.358 14.372-132.72 24.72-10.668 25.807-21.003 54.726-30.989 86.765z"/>
 <path d="m839.72 131.99c-48.822 0.083-97.322 2.823-144.9 8.104-5.539 25.408-10.946 53.852-16.291 85.444 52.695-5.67 106.59-8.655 160.94-8.745 0.084-31.349 0.167-59.565 0.253-84.803z"/>
 <path d="m866.6 132.22c0.949 25.244 1.877 53.466 2.803 84.822 54.189 0.973 107.66 4.81 159.73 11.251-6.064-31.657-12.214-60.165-18.518-85.621-47.111-6.023-95.308-9.557-144.01-10.452z"/>
 <path d="m1036.1 146.18c7.186 25.519 14.189 54.106 21.072 85.844 49.596 7.098 96.976 16.43 141.74 27.568-10.425-32.065-21.247-61.024-32.432-86.875-41.473-10.874-85.07-19.818-130.38-26.537z"/>
 <path d="m1188.5 178.74c11.759 25.894 23.119 54.889 34.021 86.969 41.148 11.059 79.463 23.526 114.77 37.093-12.685-31.794-26.133-60.701-40.181-86.632-33.669-13.876-69.953-26.446-108.61-37.43z"/>
 <path d="m1314.8 223.68c14.325 25.895 28.017 54.728 40.896 86.401 31.59 12.878 60.34 26.561 86.151 40.871-13.391-30.667-27.799-58.8-42.991-84.258-25.388-15.194-53.453-29.61-84.056-43.014z"/>
 <path d="m1412 274.81c15.249 25.336 29.693 53.291 43.094 83.719 22.585 13.247 42.597 26.939 59.954 40.921-13.115-28.914-27.36-55.69-42.482-80.18-17.741-15.251-37.952-30.147-60.566-44.46z"/>
 <path d="m83.089 516.92c1.565-3.961 3.148-7.902 4.768-11.804-1.788 3.965-3.368 7.904-4.768 11.804z"/>
 <path d="m132.33 514.87c17.763-11.076 38.294-21.899 61.534-32.467 10.843-38.829 23.301-75.317 37.091-109.22-23.647 12.906-44.651 26.254-62.927 39.917-13.383 31.819-25.365 65.83-35.698 101.77z"/>
 <path d="m207.68 476.29c27.089-11.668 57.324-22.923 90.695-33.696 10.917-41.818 23.229-80.745 36.623-116.62-32.991 12.522-63.06 25.851-90.118 39.815-13.803 34.251-26.3 71.163-37.2 110.5z"/>
 <path d="m317.97 436.44c37.934-11.599 79.287-22.476 124.02-32.33 9.84-43.79 20.575-84.166 31.945-121.11-42.868 10.635-82.833 22.714-119.72 35.905-13.209 36.104-25.394 75.332-36.241 117.54z"/>
 <path d="m467.91 398.6c49.483-10.144 102.22-18.864 157.88-25.455 6.466-44.3 13.166-84.917 20.051-121.97-51.439 6.474-100.68 15.28-147.28 25.948-10.854 37.018-21.15 77.507-30.653 121.47z"/>
 <path d="m839.42 238.92c-55.616 0.092-110.72 3.131-164.56 8.876-5.95 37.011-11.763 77.59-17.42 121.86 59.116-5.985 120.01-9.285 181.7-9.385 0.092-44.098 0.185-84.498 0.279-121.35z"/>
 <path d="m870.04 239.17c1.038 36.861 2.063 77.268 3.086 121.37 61.408 1.064 121.64 5.269 179.79 11.987-6.338-44.297-12.896-84.908-19.63-121.95-53.154-6.517-107.82-10.42-163.25-11.41z"/>
 <path d="m1061.9 254.36c7.619 37.075 15.007 77.714 22.086 122.02 54.397 7.198 105.73 16.352 153.75 26.804-9.788-43.821-20.455-84.219-31.744-121.18-45.425-11.121-93.584-20.491-144.09-27.647z"/>
 <path d="m1229.9 288.1c11.755 36.866 22.81 77.126 32.889 120.74 43.23 10.072 83.092 21.071 119.56 32.735-10.907-41.884-23.201-80.863-36.567-116.77-35.589-13.374-74.266-25.71-115.88-36.702z"/>
 <path d="m1364.3 331.96c13.519 35.658 25.912 74.316 36.867 115.79 31.975 10.792 60.865 22.023 86.654 33.643-10.854-38.913-23.319-75.472-37.113-109.43-25.849-13.974-54.681-27.361-86.408-40.001z"/>
 <path d="m1464 379.34c13.762 33.602 26.175 69.728 36.96 108.13 22.05 10.497 41.452 21.231 58.135 32.2-10.233-35.487-22.111-69.102-35.391-100.58-17.248-13.57-37.178-26.861-59.704-39.744z"/>
 <path d="m32.432 705.36c-0.559 2.012-0.85 4.005-0.866 5.918 0.276-1.977 0.576-3.945 0.866-5.918z"/>
 <path d="m58.256 678.29c9.508-5.742 21.23-11.278 35.087-16.74 5.791-40.41 13.698-79.599 23.526-117.18-14.645 9.168-27.059 18.488-37.112 27.919-9.015 34.146-16.233 69.594-21.501 106z"/>
 <path d="m101.85 658.3c17.175-6.34 36.985-12.494 59.474-18.579 6.356-45.472 14.972-89.312 25.561-131.1-23.113 9.899-43.517 20.014-61.162 30.371-9.963 38.232-17.989 78.131-23.873 119.3z"/>
 <path d="m174.83 636.16c26.738-6.876 56.595-13.58 89.667-20.171 6.793-50.666 15.868-99.104 26.769-144.9-33.367 10.206-63.569 20.819-90.616 31.797-10.676 42.431-19.384 86.997-25.82 133.27z"/>
 <path d="m284.07 612.18c38.188-7.277 79.985-14.338 125.5-21.1 6.875-55.447 15.744-107.81 25.903-156.81-44.996 9.516-86.526 19.934-124.58 30.976-10.879 46.366-19.984 95.477-26.823 146.93z"/>
 <path d="m621.42 403.93c-56.483 6.555-109.85 15.14-159.83 25.002-9.874 49.368-18.586 102.21-25.403 158.29 51.36-7.251 106.69-14.058 165.99-19.734 5.668-58.534 12.273-113.04 19.239-163.56z"/>
 <path d="m839.07 391c-63.062 0.101-125.23 3.463-185.47 9.459-6.131 50.577-12.021 105.2-17.212 163.94 64.875-5.507 132.78-9.177 202.37-9.285 0.1-58.917 0.202-113.57 0.304-164.11z"/>
 <path d="m873.83 391.27c1.128 50.547 2.246 105.21 3.359 164.13 69.001 1.146 135.66 5.611 198.95 11.557-5.597-58.574-12.093-113.1-18.928-163.63-59.192-6.705-120.63-10.973-183.38-12.053z"/>
 <path d="m1088.7 407.15c7.586 50.438 14.697 104.81 20.678 163.1 57.509 5.973 111.03 12.885 160.61 20.189-6.868-55.554-15.714-108-25.83-157.06-48.439-10.129-100.33-19.101-155.46-26.23z"/>
 <path d="m1269.4 438.84c10.354 48.663 19.318 100.59 26.221 155.48 43.811 6.776 83.963 13.812 120.57 21.05-6.802-50.797-15.883-99.347-26.781-145.24-36.557-11.082-76.559-21.589-120.01-31.286z"/>
 <path d="m1408.3 475.98c10.901 45.306 19.94 93.169 26.69 143.17 31.596 6.536 60.045 13.177 85.439 19.988-6.37-45.605-15.001-89.565-25.606-131.46-25.734-10.921-54.573-21.497-86.523-31.702z"/>
 <path d="m1507.9 513.38c10.509 41.243 19.043 84.476 25.331 129.28 21.262 6.009 39.915 12.085 55.992 18.351-5.807-40.535-13.734-79.842-23.584-117.53-16.559-10.252-35.825-20.275-57.739-30.096z"/>
 <path d="m1573.9 548.78c9.711 37.048 17.517 75.651 23.23 115.43 12.886 5.378 23.708 10.832 32.36 16.492-5.186-35.828-12.294-70.726-21.177-104.36-9.208-9.293-20.725-18.5-34.413-27.558z"/>
 <path d="m1636.2 629.35c-0.644-6.269-2.136-12.841-4.784-19.465 1.674 6.442 3.26 12.936 4.784 19.465z"/>
 <path d="m1636.4 631.16c1.202 4.8 2.344 9.632 3.457 14.479-1.158-5.46-2.369-10.89-3.63-16.293 0.062 0.606 0.126 1.213 0.173 1.814z"/>
 <path d="m1650.9 703.5c0.482 3.188 0.95 6.381 1.394 9.583 0.207-3.052-0.221-6.328-1.394-9.583z"/>
 <path d="m24.19 817.36c0.948 0.242 2.368 0.348 4.063 0.49 3e-3 -0.432 0.013-0.863 0.016-1.295 0.32-0.022 0.658-0.043 0.999-0.065-4e-3 0.48-0.015 0.96-0.017 1.441 1.831 0.145 3.556 0.26 5.014 0.396 4e-3 -0.7 0.017-1.399 0.023-2.098 2.69-0.119 5.783-0.232 9.33-0.345 0.241-37.36 2.578-74.545 6.96-111.17-2.968 1.677-5.641 3.377-8.035 5.099 1.151-7.79 2.422-15.536 3.798-23.241 2.219-1.818 4.671-3.619 7.348-5.4 5.169-35.713 12.256-70.503 21.112-104.04-1.245 1.276-2.432 2.556-3.591 3.837 0.449-3.399 0.819-6.918 1.197-10.542-1.766 5.005-3.483 10.053-5.158 15.135-0.622 0.757-1.225 1.513-1.816 2.27 2.381-7.297 4.849-14.524 7.419-21.661 0.045-0.421 0.092-0.849 0.138-1.273 1.264-1.613 2.586-3.224 3.969-4.834-0.916 6.379-1.897 12.424-3.396 18.026 6.377-19.744 13.332-38.917 20.658-57.535 1.763-3.782 3.326-7.775 4.781-11.938 0.221-0.431 0.431-0.875 0.647-1.311-4.934 14.111-9.577 28.542-13.877 43.305 10.213-10.116 22.796-20.141 37.626-30 10.213-35.397 22.069-68.934 35.328-100.35-11.933 9.488-22.537 19.111-31.808 28.779 0.599-1.102 1.2-2.198 1.8-3.293-0.895 1.453-1.803 2.886-2.734 4.287-0.203 0.214-0.402 0.428-0.604 0.642 2.956-5.373 5.943-10.669 8.951-15.899 2.133-3.198 4.186-6.518 6.183-9.94 8.056-8.117 16.986-16.191 26.789-24.171 13.099-28.863 27.329-55.6 42.437-80.06-1.365 1.185-2.693 2.376-4.029 3.565 3.587-5.369 7.27-10.835 11.092-16.382 0.857-0.761 1.696-1.525 2.565-2.284 9.043-13.738 18.351-26.659 27.855-38.754 5.968-7.409 12.26-14.857 18.94-22.304-0.606 0.54-1.213 1.097-1.819 1.642 0.097-0.111 0.193-0.227 0.29-0.338-16.786 14.744-31.647 29.843-44.66 45.005-2.928 3.438-5.835 6.965-8.73 10.541 0.66-0.823 1.306-1.645 1.977-2.468-14.948 17.696-29.477 37.163-43.307 58.397-8.973 11.472-16.703 22.959-23.349 34.291-4.479 6.829-8.53 13.628-12.168 20.356-9.177 15.463-17.936 31.702-26.217 48.648-4.555 9.145-8.97 18.497-13.223 28.064-2.208 4.825-4.124 9.611-5.811 14.339-3.07 7.47-6.041 15.047-8.91 22.728 0.856-2.889 1.799-5.805 2.854-8.746-8.922 22.582-16.948 46.099-23.943 70.451-3.408 7.584-5.507 15.112-6.613 22.303-2.521 6.271-4.046 12.486-4.754 18.421-6.341 25.145-11.475 50.965-15.347 77.27 0.2-0.721 0.43-1.443 0.702-2.167-0.517 3.406-1.014 6.82-1.488 10.242 0.254 3.067 1.085 5.993 2.147 8.764-0.65 5.754-1.253 11.518-1.791 17.297-0.427-0.826-0.824-1.673-1.181-2.536 0.58-5.929 1.199-11.849 1.899-17.751-2.457 3.505-3.609 7.271-3.526 10.683-3.329 28.846-5.104 58.04-5.289 87.327 0.035-0.034 0.134-0.078 0.288-0.127-1e-3 0.092-4e-3 0.183-4e-3 0.274zm11.582-101.81c1.056-7.44 2.227-14.839 3.497-22.199 0.416-0.476 0.838-0.952 1.287-1.426-1.302 7.442-2.497 14.927-3.582 22.451-0.412 0.39-0.822 0.781-1.202 1.174zm63.25-206.99c1.395-3.994 2.692-8.143 3.968-12.418-4.011 8.518-7.913 17.199-11.702 26.023 1.2-3.561 2.422-7.098 3.661-10.618 3.105-6.912 6.278-13.731 9.523-20.444 1.787-6.149 3.601-12.546 5.594-19.143 0.997-2.416 1.989-4.837 3.005-7.23-0.436 0.541-0.848 1.083-1.276 1.624 0.587-1.868 1.185-3.746 1.811-5.643-1.886 3.486-3.744 7.016-5.589 10.566-1.422 1.909-2.803 3.818-4.124 5.725 3.832-7.601 7.758-15.065 11.778-22.375 0.209-0.598 0.43-1.202 0.643-1.803 1.521-2.05 3.075-4.1 4.704-6.149 1.237-2.713 2.494-5.396 3.754-8.074 3.81-6.518 7.68-12.915 11.608-19.176-1.688 3.417-3.359 6.863-5.011 10.343-3.581 5.902-7.12 11.9-10.597 18.021-3.223 9.106-5.997 17.892-8.682 26.264-4.125 10.331-8.085 20.862-11.864 31.596-0.4 0.975-0.807 1.934-1.204 2.911zm81.664-164.4c4.056-4.683 8.343-9.356 12.821-14.015-2.121 2.516-4.239 5.052-6.347 7.633-2.135 3.486-4.189 6.951-6.182 10.394-2.087 2.218-4.111 4.439-6.097 6.662 1.17-2.05 2.357-4.105 3.581-6.169-7.077 9.06-14.047 18.504-20.88 28.32 1.067-1.778 2.13-3.566 3.208-5.323-1.814 2.327-3.555 4.654-5.264 6.981 8.188-12.056 16.595-23.548 25.16-34.483zm-126.75 262.22c-0.33 0.72-0.635 1.44-0.938 2.16 4.386-15.624 9.213-30.925 14.46-45.859-2.101 6.625-4.134 13.31-6.083 20.066 0.081-0.157 0.173-0.315 0.256-0.472-3.459 10.671-6.72 21.503-9.744 32.505-0.176 1.864-0.288 3.705-0.355 5.523-1.488 6.262-2.913 12.56-4.265 18.899-0.037-1.796-0.021-3.618 0.059-5.465 2.063-9.2 4.255-18.328 6.61-27.357z"/>
 <path d="m23.905 817.27c0-0.016 0-0.032 1e-3 -0.048-0.021 0.019-0.023 0.036-1e-3 0.048z"/>
 <path d="m47.985 815.76c9.344-0.271 20.629-0.522 34.011-0.772 0.273-42.647 2.914-85.044 7.851-126.72-13.72 4.57-25.32 9.195-34.763 14.031-4.469 37.368-6.853 75.32-7.099 113.46z"/>
 <path d="m98.292 685.55c-5.021 42.503-7.71 85.762-7.987 129.29 16.937-0.296 36.365-0.582 58.442-0.866 0.304-48.577 3.251-96.788 8.718-144.04-22.371 5.121-42.072 10.29-59.173 15.623z"/>
 <path d="m162.07 813.8c26.486-0.325 56.015-0.643 88.743-0.96 0.335-55.141 3.592-109.72 9.526-162.98-32.982 5.594-62.752 11.262-89.42 17.066-5.545 48.163-8.54 97.325-8.849 146.88z"/>
 <path d="m270.24 812.66c37.992-0.354 79.578-0.704 124.91-1.054 0.367-62.311 3.95-123.67 10.146-183.08-45.504 5.853-87.269 11.899-125.42 18.097-5.993 54.223-9.299 109.83-9.64 166.04z"/>
 <path d="m421.74 811.4c51.454-0.384 107.05-0.766 166.95-1.148 0.396-69.96 4.313-137.92 9.833-202.64-59.619 5.2-115.13 11.237-166.59 17.557-6.192 60.341-9.829 122.76-10.2 186.23z"/>
 <path d="m633.01 604.75c-5.155 65.29-9.087 134.13-9.488 205.28 66.873-0.414 138.44-1.078 214.84-1.188 0.106-75.805 0.219-146.78 0.33-213.07-71.037 0.11-140.05 3.831-205.68 8.98z"/>
 <path d="m877.94 596.06c1.208 66.299 2.863 137.27 3.256 212.93 74.175 0.388 143.57 0.809 208.34 1.22-0.397-70.158-4.318-138.27-9.786-203.09-63.898-5.483-131.49-9.903-201.81-11.059z"/>
 <path d="m1274.3 627.96c-49.647-6.337-103.3-12.422-161.05-17.832 5.741 64.164 9.625 131.34 10.017 200.3 57.907 0.378 111.58 0.755 161.19 1.135-0.366-62.501-3.958-124.03-10.155-183.6z"/>
 <path d="m1420.4 649.32c-36.559-6.155-76.667-12.165-120.45-18.009 6.186 58.636 9.726 119.1 10.088 180.46 43.595 0.346 83.512 0.691 119.91 1.042-0.336-55.317-3.601-110.06-9.545-163.49z"/>
 <path d="m1524.3 669.43c-25.323-5.746-53.681-11.353-85.182-16.894 5.88 52.473 9.096 106.2 9.427 160.46 31.24 0.313 59.353 0.627 84.494 0.948-0.304-48.737-3.259-97.104-8.739-144.51z"/>
 <path d="m1600.6 814.96c-0.273-42.791-2.923-85.33-7.874-127.14-16.004-5.271-34.546-10.37-55.687-15.423 5.401 46.506 8.308 93.932 8.608 141.71 20.843 0.28 39.108 0.562 54.953 0.854z"/>
 <path d="m1632.6 704.32c-8.589-4.77-19.288-9.323-32.034-13.82 4.866 40.987 7.468 82.675 7.737 124.6 12.4 0.246 22.776 0.492 31.28 0.76-0.242-37.487-2.587-74.798-6.983-111.54z"/>
 <path d="m1659.8 817.15c0 0.067 2e-3 0.133 3e-3 0.2 0.136-0.038 0.132-0.114-3e-3 -0.2z"/>
 <path d="m1652.3 720.94c0.552 4.663 1.053 9.337 1.529 14.017-0.26 0.822-0.564 1.628-0.906 2.418-0.576-5.939-1.196-11.869-1.893-17.781 0.441-1.428 0.803-2.893 1.033-4.4-0.635-4.618-1.324-9.216-2.039-13.805 0.326 0.702 0.624 1.406 0.878 2.113-2.961-19.59-6.65-38.896-11.006-57.858 2.537 11.965 4.817 24.065 6.844 36.277-2.831-15.561-6.114-30.928-9.84-46.056-2.049-9.277-4.243-18.474-6.587-27.579 0.553 1.947 1.112 3.888 1.651 5.845-0.75-7.358-2.485-15.124-5.594-22.979-8.076-28.219-17.54-55.337-28.206-81.164 1.164 2.823 2.217 5.629 3.186 8.416-1.876-4.793-3.778-9.558-5.734-14.265-0.545-1.186-1.118-2.376-1.701-3.568-0.854-2.292-1.754-4.594-2.729-6.909-1.12-2.532-2.257-5.041-3.398-7.545 0.232 0.488 0.479 0.978 0.706 1.466-10.996-24.708-23.043-48.023-35.901-69.851-4.391-8.607-9.447-17.347-15.204-26.134-5.41-9.233-11.526-18.564-18.462-27.903-11.209-17.278-22.89-33.383-34.878-48.354-4.765-6.124-9.577-12.08-14.44-17.828-4.041-4.915-8.292-9.826-12.719-14.728-11.745-13.772-24.934-27.507-39.687-40.98-12.991-13.99-26.213-26.539-39.463-37.734-4.855-4.309-9.719-8.449-14.583-12.381-17.785-14.923-37.338-29.42-58.651-43.211 14.554 11.286 29.13 24.581 43.444 39.943 21.527 14.092 41.086 28.851 58.672 44.012 3.41 3.572 6.733 7.15 9.967 10.73 4.11 3.648 8.218 7.424 12.32 11.306-0.629-0.583-1.241-1.169-1.876-1.751 2.124 2.431 4.239 4.909 6.348 7.418-3.289-3.124-6.581-6.184-9.874-9.161 11.991 13.808 22.716 27.585 32.476 41.05 2.725 2.777 5.45 5.613 8.173 8.483 1.607 2.317 3.207 4.658 4.799 7.025-2.613-2.818-5.228-5.606-7.842-8.34 8.917 12.613 17.04 24.901 24.821 36.593 1.166 1.438 2.333 2.89 3.5 4.344 0.812 1.383 1.625 2.764 2.431 4.16-0.599-0.769-1.199-1.545-1.798-2.311 1.089 1.626 2.174 3.235 3.256 4.835 10.763 18.825 21.011 38.838 30.633 59.993 6.98 5.984 13.455 12.017 19.463 18.074 0.899 1.54 1.813 3.056 2.737 4.555 0.08 0.157 0.159 0.318 0.239 0.475 3.189 5.574 6.357 11.232 9.499 16.962-1.6-2.55-3.149-5.172-4.654-7.863 1.685 3.082 3.366 6.18 5.039 9.306-7.16-7.413-15.087-14.797-23.811-22.107 13.146 31.074 24.891 64.213 34.997 99.156 13.878 9.748 25.566 19.656 34.94 29.627-0.405-1.39-0.829-2.761-1.24-4.145 3.471 9.909 6.827 19.953 10.028 30.152-1.99-6.37-3.149-13.392-4.224-20.855-4.449-12.1-9.15-23.937-14.046-35.525-1.073-3.231-2.162-6.446-3.267-9.643 4.83 10.945 9.482 22.125 13.912 33.55 1.181 3.852 2.34 7.725 3.474 11.62 1.36 1.583 2.641 3.17 3.886 4.758 0.176 1.631 0.346 3.247 0.512 4.839 1.896 5.353 3.739 10.753 5.53 16.194-0.565-0.694-1.131-1.387-1.721-2.08-1.107-3.34-2.227-6.669-3.373-9.976 0.773 7.169 1.611 13.913 3.271 20.052 1.977 6.644 3.877 13.349 5.712 20.101 5.08 22.71 9.371 45.907 12.789 69.519 1.205 0.873 2.337 1.754 3.433 2.638 1.366 7.705 2.618 15.457 3.762 23.246-1.299-0.917-2.673-1.827-4.135-2.729 4.309 36.012 6.607 72.568 6.844 109.29 2.021 0.071 3.856 0.141 5.54 0.213 6e-3 0.725 0.02 1.45 0.023 2.175 1.284-0.138 2.907-0.246 4.708-0.384-3e-3 -0.52-0.014-1.039-0.019-1.559 0.347 0.02 0.687 0.041 1.012 0.061 4e-3 0.473 0.014 0.945 0.017 1.419 1.774-0.142 3.338-0.264 4.516-0.478-1e-3 -0.157-5e-3 -0.313-6e-3 -0.47 0.205 0.058 0.353 0.118 0.441 0.174-0.186-28.755-1.919-57.419-5.169-85.75 0.384-3.305-0.314-6.998-2.315-10.462zm-112.14-322.05c-3.313-5.125-6.664-10.158-10.053-15.096-2.134-3.669-4.286-7.298-6.463-10.88 3.326 4.714 6.62 9.516 9.877 14.409 2.24 3.804 4.448 7.669 6.639 11.567zm-47.646-66.533c1.164 1.396 2.328 2.789 3.488 4.205-0.301-0.488-0.615-0.979-0.919-1.468 2.245 2.422 4.424 4.848 6.556 7.276 1.047 1.698 2.077 3.392 3.086 5.081 5.088 6.497 10.122 13.19 15.09 20.078-3.385-4.195-6.934-8.388-10.671-12.574-0.05-0.065-0.099-0.131-0.149-0.196 0.014 0.025 0.027 0.049 0.042 0.074-1.982-2.218-4.014-4.434-6.095-6.648-0.828-1.43-1.663-2.863-2.514-4.302-6.741-8.373-13.554-16.404-20.397-24.132 4.333 4.185 8.495 8.389 12.483 12.606zm82.497 143.51c-1.661-4.104-3.343-8.184-5.057-12.222-0.781-0.956-1.601-1.912-2.409-2.869-0.855-2.612-1.734-5.256-2.648-7.931-2.32-4.147-4.67-8.235-7.038-12.285 1.412 1.663 2.791 3.325 4.13 4.988-0.109-0.24-0.222-0.474-0.332-0.714 0.374 0.651 0.752 1.293 1.124 1.947-2.317-6.495-4.879-13.155-7.745-19.929 4.189 8.323 8.277 16.814 12.234 25.505 0.107 0.144 0.207 0.287 0.313 0.431 0.828 2.329 1.631 4.644 2.393 6.933 2.226 4.102 4.416 8.263 6.585 12.455-0.483-0.655-0.95-1.31-1.445-1.966 1.144 2.697 2.264 5.423 3.384 8.15-2.17-4.269-4.363-8.505-6.592-12.684 1.091 3.452 2.115 6.846 3.103 10.191zm45.488 103.18c0.75 1.311 1.469 2.62 2.14 3.924 2.378 7.373 4.661 14.823 6.834 22.355-0.578-1.212-1.205-2.429-1.863-3.648-2.264-7.625-4.634-15.171-7.111-22.631zm21.815 111.81c0.435 0.435 0.847 0.871 1.255 1.308 1.297 7.429 2.49 14.898 3.57 22.408-0.383-0.368-0.784-0.735-1.194-1.101-1.104-7.578-2.307-15.12-3.631-22.615z"/>
 <path d="m24.018 836.61c-2e-3 -0.096-5e-3 -0.191-7e-3 -0.287-0.055 0.085-0.041 0.184 7e-3 0.287z"/>
 <path d="m91.431 969.01c-5.395-41.437-8.516-83.685-9.276-126.27-13.389-0.703-24.682-1.409-34.026-2.168 0.687 38.093 3.505 75.929 8.392 113.11 9.47 5.271 21.127 10.331 34.91 15.328z"/>
 <path d="m159.21 989.02c-5.964-46.936-9.442-94.94-10.29-143.43-22.083-0.798-41.517-1.6-58.457-2.432 0.774 43.462 3.951 86.565 9.436 128.82 17.135 5.817 36.886 11.458 59.311 17.042z"/>
 <path d="m262.23 1010.9c-6.45-52.815-10.284-107.09-11.219-162.1-32.734-0.891-62.268-1.783-88.758-2.695 0.862 49.463 4.395 98.408 10.441 146.24 26.7 6.32 56.511 12.488 89.536 18.564z"/>
 <path d="m407.25 1033.9c-6.678-58.735-10.866-119.61-11.885-181.71-45.341-0.98-86.933-1.962-124.93-2.956 0.948 56.076 4.837 111.36 11.348 165.1 38.17 6.721 79.952 13.262 125.47 19.562z"/>
 <path d="m600.22 1056.2c-5.785-63.608-10.205-130.68-11.299-200.18-59.906-1.063-115.51-2.132-166.97-3.209 1.032 63.237 5.274 125.14 11.931 184.74 51.419 6.78 106.85 13.205 166.34 18.651z"/>
 <path d="m838.73 1068.3c-0.11-64.883-0.219-134.4-0.328-208.69-76.206-0.113-147.77-1.86-214.64-3.011 1.102 70.619 5.472 138.46 10.83 202.56 65.291 5.338 133.79 9.037 204.14 9.146z"/>
 <path d="m877.58 1068c69.699-1.152 136.86-5.603 200.49-11.327 5.723-63.696 10.139-130.9 11.235-200.59-64.773 1.144-134.17 2.432-208.31 3.266-0.835 74.256-2.21 143.77-3.412 208.65z"/>
 <path d="m1111.5 1053.5c57.647-5.697 111.25-12.196 160.87-19.009 6.676-58.881 10.873-119.93 11.895-182.21-49.608 1.067-103.29 2.124-161.2 3.178-1.088 68.557-5.512 134.92-11.563 198.04z"/>
 <path d="m1429.7 848.84c-36.398 0.984-76.32 1.954-119.92 2.923-1.009 61.154-5.152 121.17-11.83 179.16 43.798-6.301 83.929-12.809 120.51-19.489 6.461-52.969 10.304-107.41 11.241-162.6z"/>
 <path d="m1532.8 845.67c-25.145 0.901-53.263 1.782-84.509 2.661-0.924 54.136-4.712 107.58-11.108 159.62 31.546-6.021 59.946-12.126 85.302-18.385 5.978-47.084 9.465-95.242 10.315-143.89z"/>
 <path d="m1591.1 969.5c5.41-41.572 8.54-83.961 9.303-126.69-15.848 0.822-34.119 1.612-54.968 2.398-0.837 47.694-4.269 94.922-10.162 141.12 21.197-5.511 39.79-11.079 55.827-16.827z"/>
 <path d="m1639.5 840.26c-8.505 0.752-18.888 1.445-31.296 2.134-0.749 41.871-3.824 83.417-9.142 124.18 12.811-4.918 23.566-9.902 32.183-15.099 4.808-36.568 7.58-73.768 8.255-111.21z"/>
 <path d="m1659.7 836.09c-4e-3 0.235-0.013 0.47-0.017 0.706 0.21-0.275 0.229-0.537 0.017-0.706z"/>
 <path d="m1659.2 837.2c9e-3 -0.459 0.025-0.918 0.033-1.377-1.131-0.581-2.727-0.943-4.5-1.342-0.021 1.331-0.061 2.66-0.09 3.99-0.326 0.058-0.668 0.116-1.016 0.172 0.032-1.461 0.074-2.922 0.097-4.384-1.795-0.388-3.426-0.694-4.693-1.078-0.029 2.039-0.075 4.076-0.121 6.113-1.677 0.2-3.504 0.397-5.513 0.594-0.662 36.683-3.378 73.133-8.091 108.98 1.345-0.9 2.608-1.809 3.816-2.723-1.26 7.808-2.634 15.573-4.115 23.29-0.97 0.822-1.966 1.641-3.018 2.455-3.114 19.873-6.854 39.427-11.15 58.63-2.403 8.844-4.925 17.602-7.567 26.259-1.815 6.251-2.804 13.131-3.719 20.442 0.622-1.744 1.23-3.5 1.841-5.253 0.582-0.68 1.165-1.36 1.724-2.042-1.337 3.859-2.692 7.703-4.082 11.515-0.308 2.55-0.624 5.154-0.963 7.8-1.27 1.652-2.577 3.303-3.964 4.951-0.199 0.653-0.408 1.295-0.608 1.947-4.414 11.38-9.047 22.515-13.858 33.414 1.106-3.2 2.2-6.412 3.274-9.646 4.022-9.518 7.912-19.206 11.638-29.073 1.224-7.594 2.541-14.74 4.692-21.212-3.312 10.307-6.781 20.45-10.359 30.456-9.367 10.088-20.949 20.123-34.661 29.999-10.412 34.447-22.42 67.054-35.784 97.57 7.873-6.672 15.1-13.406 21.717-20.166-1.309 2.384-2.621 4.759-3.936 7.117 1.457-2.621 2.95-5.18 4.482-7.682 0.036-0.037 0.071-0.074 0.107-0.111-2.452 4.368-4.918 8.691-7.393 12.967-0.334 0.632-0.666 1.275-0.999 1.913-0.738 1.174-1.469 2.359-2.192 3.558-1.014 1.784-2.03 3.534-3.045 5.303-0.053 0.053-0.105 0.106-0.158 0.159 0.056-0.098 0.112-0.199 0.168-0.297-0.063 0.107-0.127 0.212-0.19 0.319-5.373 5.344-11.094 10.668-17.201 15.953-8.089 17.2-16.594 33.608-25.449 49.208-2.568 3.601-5.135 7.279-7.722 11.029 1.723-2.186 3.45-4.394 5.179-6.614-0.784 1.358-1.568 2.717-2.357 4.062-2.354 2.933-4.705 5.841-7.052 8.711-7.955 11.624-16.233 23.851-25.283 36.405 13.058-13.461 26.172-27.938 39.058-43.615 3.971-4.153 7.776-8.318 11.405-12.489-2.327 3.017-4.661 6.009-7.01 8.944-1.868 3.079-3.807 6.176-5.8 9.282-2.147 2.396-4.365 4.787-6.62 7.176 1.252-1.935 2.486-3.866 3.692-5.79-4.924 5.887-9.882 11.598-14.857 17.142-3.059 2.989-6.182 5.971-9.415 8.939-1.133 1.67-2.277 3.305-3.418 4.949-4.078 4.298-8.159 8.503-12.236 12.594-0.204 0.276-0.414 0.554-0.619 0.831 2.37-3.339 4.729-6.713 7.067-10.16-17.815 15.455-38.025 30.537-60.567 45.001-14.45 21.793-29.468 41.249-44.808 58.311 20.164-13.196 38.577-26.97 55.253-41.106-3.718 3.989-7.534 7.973-11.473 11.948-16.216 13.582-34.019 26.813-53.397 39.499-14.267 14.823-28.769 27.609-43.221 38.431 21.231-13.702 40.731-28.107 58.497-42.938 6.43-5.05 12.865-10.442 19.284-16.146 11.599-9.813 23.177-20.65 34.593-32.598 13.233-12.053 25.223-24.319 36.069-36.633 5.796-6.233 11.299-12.489 16.477-18.749 6.338-7.303 12.602-14.941 18.782-22.875 10.512-13.114 20.79-27.101 30.721-41.992 6.351-8.524 12.049-17.042 17.152-25.485 6.449-9.609 12.073-19.171 16.928-28.575 12.97-21.448 25.166-44.385 36.344-68.726-0.901 1.922-1.862 3.855-2.85 5.791 1.895-3.958 3.773-7.939 5.613-11.973 0.751-1.765 1.455-3.522 2.138-5.274 0.814-1.626 1.604-3.249 2.35-4.865 1.557-3.625 3.083-7.283 4.593-10.96-0.63 1.661-1.28 3.327-1.976 5 10.875-25.487 20.58-52.284 28.924-80.212 3.166-8.011 4.993-15.919 5.87-23.433 2.572-9.864 4.965-19.839 7.191-29.909 3.775-15.314 7.093-30.878 9.952-46.644-2.026 12.245-4.301 24.375-6.838 36.367 3.594-15.678 6.737-31.592 9.383-47.715-0.285 0.781-0.605 1.561-0.967 2.338 0.862-5.093 1.69-10.199 2.453-15.331-0.191-1.507-0.492-2.978-0.868-4.415 0.758-5.928 1.448-11.874 2.085-17.833 0.319 0.862 0.601 1.74 0.836 2.635-0.564 5.04-1.156 10.073-1.808 15.091 2.062-3.812 2.802-7.82 2.469-11.445 3.536-28.065 5.58-56.499 6.1-85.061-0.102 0.133-0.254 0.268-0.45 0.4zm-129.13 423.6c3.404-4.959 6.771-10.017 10.098-15.166-2.2 3.914-4.423 7.784-6.671 11.603-3.223 4.84-6.481 9.592-9.771 14.257 2.137-3.519 4.248-7.091 6.344-10.694zm-96.679 123.58c-2.171 2.583-4.351 5.116-6.538 7.616-3.38 3.164-6.764 6.254-10.149 9.261 2.075-2.353 4.143-4.743 6.203-7.172 3.497-3.152 6.992-6.388 10.484-9.705zm114.46-152.8c3.594-7.775 6.761-15.418 9.608-22.87 0.213-0.449 0.431-0.888 0.643-1.338-0.08 0.1-0.167 0.2-0.247 0.301 0.495-1.305 0.983-2.606 1.459-3.898-1.48 2.541-2.971 5.059-4.47 7.561-0.853 1.022-1.728 2.043-2.608 3.065 0.505-1.157 1.01-2.318 1.517-3.479 2.615-4.362 5.206-8.777 7.766-13.256 0.506-1.428 1.001-2.846 1.489-4.257 1.081-1.277 2.156-2.554 3.191-3.831 1.241-2.823 2.458-5.677 3.672-8.535-0.42 1.316-0.848 2.639-1.285 3.97 3.359-6.155 6.649-12.423 9.881-18.779-1.749 4.258-3.526 8.481-5.334 12.666-2.164 4.08-4.348 8.129-6.566 12.122-1.363 3.961-2.823 7.984-4.386 12.056-4.628 9.743-9.409 19.245-14.33 28.502zm71.232-159.28c-0.74 1.39-1.513 2.783-2.336 4.18 2.642-7.56 5.188-15.203 7.613-22.943 0.705-1.274 1.365-2.543 1.99-3.81-2.316 7.61-4.742 15.133-7.267 22.573zm26.437-131.68c-1.191 7.523-2.48 15.008-3.888 22.442-0.43 0.479-0.866 0.957-1.325 1.435 1.442-7.523 2.782-15.091 4.002-22.705 0.411-0.391 0.826-0.78 1.211-1.172z"/>
 <path d="m33.926 948.92c-0.367-2.292-0.739-4.581-1.086-6.881 0.05 2.225 0.405 4.541 1.086 6.881z"/>
 <path d="m119.91 1111.5c-10.18-37.125-18.479-75.914-24.697-115.99-13.929-5.877-25.713-11.836-35.259-17.996 5.663 36.152 13.25 71.284 22.602 105.06 10.128 9.762 22.622 19.423 37.354 28.924z"/>
 <path d="m190.14 1148.5c-10.937-41.182-19.955-84.487-26.764-129.51-22.549-6.528-42.416-13.137-59.63-19.939 6.315 40.826 14.737 80.306 25.054 118.06 17.701 10.705 38.166 21.163 61.34 31.388z"/>
 <path d="m294.6 1187.1c-11.201-45.007-20.65-92.721-27.895-142.76-33.114-7.038-63.014-14.214-89.787-21.578 6.89 45.802 16 89.808 27.02 131.61 27.069 11.314 57.289 22.242 90.662 32.726z"/>
 <path d="m438.54 1224.8c-10.343-47.986-19.476-99.37-26.735-153.92-45.511-7.152-87.316-14.66-125.52-22.418 7.286 50.791 16.754 99.144 27.92 144.69 38.002 11.317 79.454 21.964 124.33 31.65z"/>
 <path d="m623.5 1255.4c-6.989-49.318-13.644-102.6-19.478-159.9-59.108-5.852-114.32-12.966-165.61-20.609 7.18 55.134 16.129 106.96 26.161 155.27 49.748 10.007 102.82 18.663 158.93 25.239z"/>
 <path d="m839.1 1268.3c-0.101-49.304-0.202-102.67-0.302-160.25-68.914-0.107-136.26-3.746-200.73-9.376 5.309 57.474 11.219 110.84 17.355 160.2 59.707 5.994 121.27 9.326 183.68 9.426z"/>
 <path d="m1055.2 1256c6.854-49.327 13.395-102.63 19.15-159.96-62.951 6.113-129.13 10.577-197.49 11.717-1.106 57.591-2.217 110.96-3.337 160.27 62.11-1.072 122.98-5.31 181.68-12.025z"/>
 <path d="m1267.8 1071.5c-49.525 7.714-102.96 14.964-160.32 21.152-6.186 57.107-13.374 110.27-21 159.53 54.788-7.167 106.42-16.233 154.67-26.526 10.296-48.044 19.402-99.504 26.65-154.15z"/>
 <path d="m1414 1045c-36.62 7.724-76.787 15.213-120.6 22.393-7.302 54.03-16.552 105.02-27.109 152.69 43.35-9.885 83.291-20.636 119.81-32.005 11.198-45.097 20.651-92.918 27.903-143.08z"/>
 <path d="m1518.3 1019.6c-25.43 7.298-53.925 14.409-85.566 21.395-7.203 49.4-16.623 96.567-27.834 141.11 31.965-10.493 60.831-21.389 86.592-32.65 10.951-41.285 19.985-84.706 26.808-129.86z"/>
 <path d="m1587.3 996.12c-16.116 6.723-34.827 13.251-56.151 19.7-6.738 44.37-15.675 87.087-26.534 127.75 21.979-10.149 41.31-20.517 57.928-31.116 10.203-37.23 18.523-76.132 24.757-116.33z"/>
 <path d="m1605.6 1078.4c9.216-33.283 16.688-67.876 22.263-103.46-8.691 6.07-19.574 11.944-32.533 17.733-6.135 39.459-14.331 77.675-24.392 114.28 13.778-9.392 25.376-18.937 34.662-28.557z"/>
 <path d="m1634 1024.6c-1.571 6.386-3.2 12.738-4.915 19.036 2.571-6.47 4.125-12.882 4.915-19.036z"/>
 <path d="m1634 1024.6c2.117-8.602 4.112-17.277 5.964-26.029-1.768 7.714-3.635 15.377-5.625 22.968-0.09 1.012-0.207 2.034-0.339 3.061z"/>
 <path d="m1651 940.1c-0.537 3.584-1.101 7.158-1.686 10.723 1.329-3.643 1.851-7.303 1.686-10.723z"/>
 <path d="m87.613 1138.8c1.1 2.824 2.286 5.665 3.582 8.52-1.211-2.821-2.401-5.666-3.582-8.52z"/>
 <path d="m235.13 1281.4c-13.973-33.187-26.665-68.983-37.797-107.15-23.296-10.865-43.886-22.005-61.705-33.402 10.639 35.406 22.88 68.847 36.475 100.07 18.322 13.862 39.359 27.402 63.027 40.482z"/>
 <path d="m339.02 1329.1c-13.511-35.006-25.991-73.076-37.14-114.06-33.363-11.017-63.606-22.552-90.71-34.522 11.184 38.647 23.907 74.841 37.886 108.35 27.031 14.123 57.051 27.591 89.964 40.223z"/>
 <path d="m477.31 1372.4c-11.399-35.954-22.195-75.319-32.156-118.08-44.585-9.989-85.838-21.056-123.7-32.89 11.066 41.338 23.403 79.683 36.717 114.9 36.738 13.279 76.512 25.414 119.14 36.074z"/>
 <path d="m647.87 1404.1c-6.856-35.992-13.533-75.51-19.998-118.67-55.26-6.598-107.68-15.363-156.91-25.615 9.604 42.916 19.944 82.374 30.813 118.39 46.269 10.67 95.111 19.453 146.09 25.898z"/>
 <path d="m839.44 1416.3c-0.093-35.793-0.185-75.082-0.276-118.02-61.046-0.099-121.33-3.371-179.91-9.343 5.644 43.125 11.43 82.599 17.351 118.55 53.29 5.709 107.82 8.722 162.83 8.814z"/>
 <path d="m1031.3 1404.7c6.705-35.986 13.24-75.497 19.574-118.65-57.651 6.714-117.3 10.888-178.08 11.945-1.015 42.947-2.031 82.243-3.062 118.04 54.839-0.981 108.94-4.853 161.57-11.335z"/>
 <path d="m1234.5 1255.2c-47.791 10.579-98.843 19.797-152.88 27.015-7.089 43.174-14.46 82.721-22.053 118.74 50.075-7.13 97.866-16.485 142.98-27.618 11.316-35.964 22.041-75.347 31.947-118.14z"/>
 <path d="m1378.8 1216.1c-36.408 11.911-76.188 23.115-119.3 33.339-10.217 42.612-21.348 81.877-33.143 117.76 41.396-11.029 79.905-23.433 115.36-36.905 13.481-35.041 25.94-73.159 37.077-114.2z"/>
 <path d="m1484.3 1175.3c-25.811 11.927-54.717 23.446-86.696 34.491-11.197 40.661-23.768 78.482-37.415 113.3 31.666-12.759 60.462-26.294 86.295-40.434 13.976-33.242 26.674-69.104 37.816-107.35z"/>
 <path d="m1555.8 1135.9c-16.743 11.291-36.208 22.343-58.319 33.141-11.078 37.76-23.73 73.214-37.681 106.12 22.557-13.062 42.527-26.55 59.827-40.322 13.494-30.904 25.634-63.967 36.173-98.938z"/>
 <path d="m287.37 1384c-15.255-24.74-29.763-52.136-43.292-82.056-23.697-13.407-44.794-27.312-63.205-41.556 13.359 28.564 27.8 54.933 43.068 78.965 18.684 15.371 39.853 30.331 63.429 44.647z"/>
 <path d="m387.99 1434.7c-14.098-25.128-27.622-53.206-40.414-84.146-32.727-12.826-62.624-26.546-89.582-40.964 13.492 30.125 27.934 57.67 43.101 82.505 26.362 15.134 55.377 29.416 86.895 42.605z"/>
 <path d="m517.07 1478.3c-11.243-24.994-22.132-53.062-32.637-84.197-42.095-10.69-81.446-22.911-117.85-36.338 12.554 31.026 25.792 59.148 39.57 84.287 34.523 13.571 71.581 25.749 110.91 36.248z"/>
 <path d="m670.92 1508.6c-6.41-24.579-12.66-52.168-18.825-82.86-50.01-6.378-98.005-15.1-143.55-25.753 9.974 31.095 20.277 59.107 30.9 84.044 41.991 10.295 85.959 18.576 131.47 24.569z"/>
 <path d="m839.75 1519.8c-0.085-24.351-0.168-51.631-0.251-81.995-53.767-0.09-107.08-3.049-159.24-8.682 5.308 30.611 10.674 58.123 16.175 82.642 47.073 5.237 95.041 7.953 143.32 8.035z"/>
 <path d="m1008.8 1509.2c6.262-24.569 12.369-52.144 18.394-82.823-51.544 6.403-104.46 10.209-158.07 11.174-0.917 30.372-1.837 57.659-2.779 82.014 48.163-0.888 95.838-4.39 142.45-10.365z"/>
 <path d="m1195.5 1395.1c-44.443 11.135-91.446 20.441-140.6 27.508-6.844 30.763-13.802 58.42-20.943 83.052 44.87-6.672 88.069-15.562 129.19-26.385 11.143-24.986 21.939-53.046 32.36-84.175z"/>
 <path d="m1333.2 1351.8c-35.163 13.641-73.295 26.154-114.21 37.232-10.909 31.156-22.25 59.261-33.972 84.297 38.376-10.949 74.424-23.494 107.9-37.357 14.047-25.13 27.527-53.216 40.282-84.172z"/>
 <path d="m1437.6 1303.2c-25.786 14.45-54.488 28.255-86.003 41.228-12.961 30.852-26.694 58.881-41.027 83.989 30.472-13.414 58.441-27.854 83.763-43.085 15.243-24.755 29.743-52.178 43.267-82.132z"/>
 <path d="m1510.9 1254.1c-17.405 14.16-37.452 28.023-60.059 41.426-13.542 29.736-28.085 56.999-43.391 81.65 22.595-14.371 42.81-29.337 60.576-44.663 15.211-23.898 29.587-50.083 42.874-78.413z"/>
 <path d="m133.5 1207.4c2.163 3.86 4.334 7.689 6.515 11.479-2.109-3.952-4.27-7.783-6.515-11.479z"/>
 <path d="m341.52 1457.4c-15.232-17.013-30.149-36.455-44.516-58.266-23.498-14.398-44.639-29.464-63.349-44.955 14.594 21.551 29.822 40.966 45.411 58.212 18.69 15.565 39.527 30.658 62.454 45.009z"/>
 <path d="m436.8 1507.1c-13.636-16.47-27.02-35.575-40.01-57.232-31.192-13.174-59.956-27.469-86.137-42.639 14.24 21.822 29.009 41.238 44.084 58.185 25.166 14.918 52.574 28.898 82.063 41.686z"/>
 <path d="m554.93 1548.5c-10.527-15.759-20.835-34.19-30.935-55.22-38.688-10.405-75.198-22.501-109.26-36.013 12.648 21.587 25.661 40.605 38.919 56.971 31.794 12.948 65.643 24.448 101.28 34.262z"/>
 <path d="m692 1576.3c-5.867-15.177-11.548-32.87-17.168-53.11-44.55-5.898-87.639-14.061-128.84-24.234 9.505 20.905 19.191 39.216 29.093 54.868 37.571 9.493 76.672 17.047 116.92 22.476z"/>
 <path d="m839.8 1534.1c-47.149-0.081-94.01-2.744-140.02-7.89 4.809 20.139 9.662 37.739 14.687 52.858 41.333 4.707 83.343 7.131 125.56 7.204-0.078-14.976-0.152-32.315-0.226-52.172z"/>
 <path d="m865.76 1533.9c-0.817 19.865-1.638 37.212-2.494 52.193 42.138-0.793 83.937-3.924 124.94-9.308 5.73-15.167 11.275-32.843 16.763-53.066-45.578 5.874-92.163 9.31-139.2 10.181z"/>
 <path d="m1156.3 1494.2c-40.372 10.706-82.733 19.477-126.68 26.048-6.278 20.332-12.63 38.109-19.179 53.342 39.775-6.065 78.305-14.206 115.22-24.229 10.426-15.74 20.634-34.152 30.638-55.161z"/>
 <path d="m1284.2 1451.1c-33.056 13.815-68.597 26.289-106.37 37.15-10.566 21.129-21.364 39.659-32.382 55.511 34.9-10.281 67.958-22.185 98.918-35.47 13.576-16.453 26.901-35.545 39.837-57.191z"/>
 <path d="m1384.7 1400.5c-25.173 15.279-52.924 29.745-83.107 43.156-13.247 21.706-26.911 40.877-40.834 57.432 28.642-13.065 55.188-27.261 79.491-42.333 15.208-17.003 30.102-36.441 44.45-58.255z"/>
 <path d="m351.05 1467.7c-22.767-14.261-43.504-29.273-62.162-44.763 3.125 3.247 6.264 6.39 9.41 9.467-7.173-6.834-14.017-13.713-20.519-20.61-10.274-8.783-20.558-18.303-30.754-28.578 7.024 7.007 14.438 13.967 22.283 20.848-1.637-1.815-3.267-3.666-4.895-5.528 2.044 1.836 4.088 3.652 6.132 5.432-12.55-13.846-23.807-27.702-34.053-41.284-0.86-0.845-1.72-1.707-2.581-2.561-1.586-2.194-3.168-4.401-4.74-6.643 0.644 0.654 1.289 1.318 1.933 1.967-6.268-8.528-12.153-16.921-17.797-25.105 0.333 0.292 0.652 0.585 0.987 0.876-15.197-23.872-29.559-50.02-42.831-78.302-8.903-7.319-17.071-14.718-24.552-22.155-0.236-0.401-0.473-0.798-0.709-1.2-2.247-3.886-4.552-7.653-6.94-11.284-2.433-4.14-4.854-8.326-7.26-12.556 0.389 0.405 0.792 0.809 1.186 1.213 0.104 0.17 0.208 0.34 0.312 0.511-0.085-0.151-0.17-0.301-0.255-0.452 8.738 8.97 18.565 17.896 29.515 26.705-13.475-30.84-25.593-63.828-36.111-98.712-14.918-10.171-27.581-20.516-37.875-30.941 3.171 10.417 6.521 20.651 10.01 30.731-0.742-1.739-1.509-3.446-2.32-5.107-6.81-17.036-13.307-34.565-19.366-52.557 0.153 0.162 0.296 0.325 0.45 0.488-9.188-33.186-16.639-67.672-22.196-103.14-2.526-1.794-4.841-3.608-6.963-5.434-1.489-7.704-2.866-15.456-4.132-23.252 2.316 1.781 4.889 3.543 7.724 5.283-4.792-36.448-7.555-73.522-8.228-110.84-3.534-0.318-6.621-0.633-9.305-0.966-0.044-1.965-0.09-3.93-0.119-5.897-1.446 0.379-3.174 0.705-4.998 1.112 0.022 1.351 0.062 2.701 0.091 4.052-0.343-0.06-0.681-0.12-1.003-0.182-0.026-1.214-0.063-2.427-0.083-3.642-1.696 0.402-3.177 0.747-4.047 1.376 5e-3 0.301 0.016 0.602 0.022 0.904-0.151-0.119-0.247-0.232-0.297-0.34 0.519 29.184 2.615 58.233 6.249 86.897-0.028 3.57 1.07 7.46 3.367 11.167-0.371 1.641-0.64 3.321-0.747 5.043 0.574 3.835 1.182 7.657 1.811 11.47-0.288-0.756-0.553-1.512-0.772-2.266 4.129 25.821 9.477 51.138 15.981 75.772 0.808 6.257 2.447 12.806 5.12 19.42 1.245 7.098 3.397 14.494 6.728 21.95 7.566 25.223 16.235 49.512 25.857 72.749-1.213-3.113-2.306-6.202-3.3-9.264 3.124 7.993 6.346 15.882 9.688 23.634 1.346 3.454 2.806 6.934 4.42 10.435 3.088 6.732 6.262 13.346 9.501 19.862 9.546 19.577 19.733 38.202 30.453 55.791 4.099 7.504 8.71 15.096 13.83 22.719 6.393 10.57 13.713 21.262 22.086 31.941 12.495 18.656 25.528 35.88 38.889 51.703 3.755 4.586 7.539 9.059 11.348 13.415 3.486 4.04 7.111 8.074 10.856 12.099 12.909 14.649 27.458 29.227 43.758 43.464 13.352 13.921 26.922 26.298 40.486 37.255 4.578 3.901 9.161 7.652 13.742 11.214 18.412 14.799 38.583 29.117 60.492 42.678-14.31-10.678-28.674-23.351-42.807-38.083zm-245.44-313.93c3.973 10.632 8.112 21.067 12.427 31.276 1.936 5.75 3.957 11.664 6.173 17.723 2.38 4.097 4.788 8.134 7.215 12.131 1.641 3.457 3.302 6.881 4.98 10.276-3.326-5.3-6.618-10.681-9.861-16.167 0.463 1.21 0.941 2.429 1.421 3.649-1.031-2.135-2.067-4.263-3.084-6.422-1.343-1.698-2.64-3.396-3.911-5.094-0.628-1.665-1.242-3.324-1.834-4.971-3.018-5.359-5.986-10.805-8.906-16.325 1.399 1.935 2.864 3.87 4.364 5.805 0.797 1.462 1.589 2.931 2.392 4.381-0.264-0.774-0.518-1.541-0.776-2.31 0.201 0.253 0.39 0.506 0.592 0.759-0.503-1.146-0.991-2.312-1.49-3.464-2.923-8.913-5.459-17.498-7.958-25.649-4.273-8.663-8.433-17.504-12.475-26.505-1.231-3.5-2.445-7.019-3.638-10.561 4.675 10.893 9.527 21.56 14.534 31.984-0.054-0.174-0.11-0.344-0.165-0.516zm-25.727-59.464c-1.417-1.683-2.771-3.367-4.067-5.052-0.179-1.399-0.354-2.79-0.521-4.163-2.098-5.657-4.135-11.369-6.116-17.129 0.608 0.771 1.244 1.542 1.881 2.313 1.217 3.509 2.449 7.005 3.709 10.475-0.296-2.448-0.592-4.843-0.908-7.193 0.885 1.004 1.797 2.006 2.731 3.008 1.343 5.564 2.319 11.505 3.291 17.741zm-38.712-132.48c-1.383-7.387-2.664-14.818-3.833-22.292 0.4 0.436 0.81 0.871 1.243 1.305 1.196 7.539 2.493 15.039 3.907 22.489-0.455-0.5-0.894-1.001-1.317-1.502zm-9.49-45.778c0.331-0.939 0.705-1.859 1.108-2.76 0.595 5.8 1.265 11.582 1.973 17.354-0.363 1.095-0.692 2.212-0.972 3.35-0.769-5.964-1.463-11.948-2.109-17.944zm24.322 130.4c0.12 0.272 0.228 0.543 0.351 0.815-2.454-8.981-4.747-18.066-6.913-27.227-0.137-1.937-0.207-3.849-0.22-5.733 1.442 6.417 2.957 12.791 4.538 19.124 0.091 1.429 0.203 2.867 0.358 4.323 3.429 11.962 7.132 23.718 11.073 35.271-0.389-0.719-0.787-1.438-1.154-2.155 1.063 3.531 2.149 7.042 3.254 10.535-4.012-11.441-7.775-23.1-11.287-34.953zm108.17 231.89c-2.204-3.513-4.383-7.078-6.546-10.679 3.314 4.76 6.662 9.428 10.038 14.009 1.226 1.982 2.449 3.97 3.687 5.924 2.185 2.63 4.463 5.257 6.784 7.883 1.479 1.896 2.96 3.784 4.447 5.647-0.399-0.662-0.782-1.32-1.175-1.981 2.017 2.219 4.095 4.434 6.21 6.646 1.202 1.994 2.419 3.994 3.669 6.002 5.951 7.136 11.952 14.001 17.973 20.639-7.183-6.908-13.908-13.866-20.166-20.849-0.649-1.011-1.306-2.025-1.941-3.033-7.789-9.609-15.462-19.688-22.98-30.208z"/>
 <path d="m445.25 1517c-29.088-12.648-56.17-26.493-81.085-41.282 13.947 14.616 28.117 27.149 42.233 37.652 23.674 13.922 49.168 26.916 76.342 38.735-12.529-9.525-25.104-21.235-37.49-35.105z"/>
 <path d="m561.36 1557.7c-34.967-9.66-68.226-20.993-99.509-33.77 11.996 13.716 24.174 25.268 36.315 34.615 28.92 11.828 59.472 22.278 91.413 31.145-9.486-8.455-18.928-19.162-28.219-31.99z"/>
 <path d="m581.12 1563c8.694 12.666 17.532 23.228 26.437 31.542 33.358 8.498 67.9 15.226 103.3 20.042-5.274-7.777-10.34-17.657-15.331-29.523-39.344-5.322-77.605-12.734-114.4-22.061z"/>
 <path d="m717.48 1587.8c4.249 11.748 8.557 21.528 13.084 29.257 36.176 4.155 72.872 6.289 109.71 6.354-0.071-7.671-0.135-17.138-0.199-28.557-41.209-0.072-82.224-2.444-122.6-7.054z"/>
 <path d="m860.54 1623.2c36.782-0.698 73.324-3.456 109.25-8.215 5.152-7.768 10.094-17.631 14.963-29.476-40.054 5.274-80.87 8.339-122 9.115-0.712 11.428-1.426 20.905-2.209 28.576z"/>
 <path d="m1006.5 1582.4c-5.598 11.972-11.285 21.943-17.163 29.773 35.052-5.391 69.167-12.658 102.03-21.652 9.392-8.43 18.735-19.112 27.93-31.914-36.173 9.852-73.892 17.845-112.79 23.793z"/>
 <path d="m1235.9 1518.1c-30.485 13.118-62.988 24.857-97.256 34.983-9.767 12.966-19.689 23.797-29.638 32.375 31.381-9.315 61.321-20.163 89.591-32.333 12.468-9.496 24.979-21.18 37.303-35.025z"/>
 <path d="m1330.7 1469c-24.082 14.948-50.334 29.016-78.609 41.948-12.687 13.996-25.567 25.836-38.398 35.511 26.505-12.113 51.31-25.345 74.288-39.446 14.281-10.649 28.615-23.299 42.719-38.013z"/>
</svg>
